HIERARCHY
ROOT Hips
{
	OFFSET -0.001795 -0.223333 0.028219
	CHANNELS 6 Xposition Yposition Zposition Zrotation Yrotation Xrotation 
	JOINT LeftUpLeg
	{
		OFFSET 0.069520 -0.091406 -0.006815
		CHANNELS 3 Zrotation Yrotation Xrotation
		JOINT LeftLeg
		{
			OFFSET 0.034277 -0.375199 -0.004496
			CHANNELS 3 Zrotation Yrotation Xrotation
			JOINT LeftFoot
			{
				OFFSET -0.013596 -0.397961 -0.043693
				CHANNELS 3 Zrotation Yrotation Xrotation
				JOINT LeftToe
				{
					OFFSET 0.026358 -0.055791 0.119288
					CHANNELS 3 Zrotation Yrotation Xrotation
					End Site
					{
						OFFSET 0.000000 0.000000 0.000000
					}
				}
			}
		}
	}
	JOINT RightUpLeg
	{
		OFFSET -0.067670 -0.090522 -0.004320
		CHANNELS 3 Zrotation Yrotation Xrotation
		JOINT RightLeg
		{
			OFFSET -0.038290 -0.382569 -0.008850
			CHANNELS 3 Zrotation Yrotation Xrotation
			JOINT RightFoot
			{
				OFFSET 0.015774 -0.398415 -0.042312
				CHANNELS 3 Zrotation Yrotation Xrotation
				JOINT RightToe
				{
					OFFSET -0.025372 -0.048144 0.123348
					CHANNELS 3 Zrotation Yrotation Xrotation
					End Site
					{
						OFFSET 0.000000 0.000000 0.000000
					}
				}
			}
		}
	}
	JOINT Spine
	{
		OFFSET -0.002533 0.108963 -0.026696
		CHANNELS 3 Zrotation Yrotation Xrotation
		JOINT Spine1
		{
			OFFSET 0.005487 0.135180 0.001092
			CHANNELS 3 Zrotation Yrotation Xrotation
			JOINT Spine2
			{
				OFFSET 0.001457 0.052922 0.025425
				CHANNELS 3 Zrotation Yrotation Xrotation
				JOINT Neck
				{
					OFFSET -0.002778 0.213870 -0.042857
					CHANNELS 3 Zrotation Yrotation Xrotation
					JOINT Head
					{
						OFFSET 0.005152 0.064970 0.051349
						CHANNELS 3 Zrotation Yrotation Xrotation
						End Site
						{
							OFFSET 0.000000 0.000000 0.000000
						}
					}
				}
				JOINT LeftShoulder
				{
					OFFSET 0.078845 0.121749 -0.034090
					CHANNELS 3 Zrotation Yrotation Xrotation
					JOINT LeftArm
					{
						OFFSET 0.090977 0.030469 -0.008868
						CHANNELS 3 Zrotation Yrotation Xrotation
						JOINT LeftForeArm
						{
							OFFSET 0.259612 -0.012772 -0.027456
							CHANNELS 3 Zrotation Yrotation Xrotation
							JOINT LeftHand
							{
								OFFSET 0.249234 0.008986 -0.001171
								CHANNELS 3 Zrotation Yrotation Xrotation
								End Site
								{
									OFFSET 0.000000 0.000000 0.000000
								}
							}
						}
					}
				}
				JOINT RightShoulder
				{
					OFFSET -0.081759 0.118833 -0.038615
					CHANNELS 3 Zrotation Yrotation Xrotation
					JOINT RightArm
					{
						OFFSET -0.096012 0.032551 -0.009143
						CHANNELS 3 Zrotation Yrotation Xrotation
						JOINT RightForeArm
						{
							OFFSET -0.253742 -0.013329 -0.021401
							CHANNELS 3 Zrotation Yrotation Xrotation
							JOINT RightHand
							{
								OFFSET -0.255298 0.007772 -0.005559
								CHANNELS 3 Zrotation Yrotation Xrotation
								End Site
								{
									OFFSET 0.000000 0.000000 0.000000
								}
							}
						}
					}
				}
			}
		}
	}
}
MOTION
Frames: 8
Frame Time: 0.050000
3.707777 0.897756 0.329584 6.296992 -69.584540 -12.369813 0.438310 4.312209 16.677717 5.146926 16.039375 45.492247 -7.882739 -13.107029 10.537879 0.000000 0.000000 0.000000 -2.684086 3.037632 -19.741053 15.419321 3.597611 24.855475 -23.887079 -37.453176 8.503141 0.000000 0.000000 0.000000 13.232805 0.297864 15.080741 -10.154464 1.761349 -23.168513 -0.440546 16.593491 29.431498 8.018456 -7.399965 -26.111912 0.000000 0.000000 0.000000 -4.058606 -12.369216 7.123705 -63.561771 -12.366740 -0.176644 -11.924213 -35.105882 6.770245 0.000000 0.000000 0.000000 10.939262 -1.968341 -6.801183 55.532012 1.408904 -7.348543 23.015617 38.699150 5.259902 0.000000 0.000000 0.000000 
3.770293 0.890450 0.309860 3.368507 -69.348735 -8.609070 -0.458284 6.022180 20.968862 3.541143 11.901996 38.027389 -6.740254 -11.430432 13.163140 0.000000 0.000000 0.000000 -2.662264 4.200002 -23.518211 15.289449 2.847431 19.888999 -22.014432 -36.354489 9.433613 0.000000 0.000000 0.000000 14.331146 0.252614 13.548475 -8.232228 1.175393 -22.299016 -3.779334 16.309675 28.632857 9.375697 -8.571356 -23.638921 0.000000 0.000000 0.000000 0.774101 -10.397659 4.328110 -67.664014 -10.883149 1.104058 -10.869307 -33.886980 6.202704 0.000000 0.000000 0.000000 11.029259 -1.912453 -7.013471 56.915793 1.990909 -7.542914 22.535869 37.701458 5.001012 0.000000 0.000000 0.000000 
3.838052 0.890416 0.287531 2.447501 -68.676149 -7.370996 -2.699461 7.573698 23.872383 2.576781 6.736200 28.343396 -3.153419 -6.247040 9.685876 0.000000 0.000000 0.000000 -3.553490 4.779582 -25.417367 14.294544 2.061325 12.864484 -20.929573 -35.595082 13.804374 0.000000 0.000000 0.000000 12.994665 0.073535 11.887566 -8.684840 1.257524 -21.341603 -2.275969 14.627815 29.130575 8.734640 -8.129462 -24.440318 0.000000 0.000000 0.000000 0.360749 -11.809775 5.118257 -66.328525 -11.354173 1.296065 -8.607251 -36.912146 6.185114 0.000000 0.000000 0.000000 11.301983 -3.897900 -8.054880 55.703561 1.337273 -7.623195 26.239747 35.815670 5.492398 0.000000 0.000000 0.000000 
3.908371 0.892519 0.263302 -0.029781 -67.092561 -4.433087 -2.119703 8.743461 26.498084 2.614503 2.759115 19.092222 -1.725791 -2.973071 5.080831 0.000000 0.000000 0.000000 -5.394742 5.029317 -26.525908 13.387699 1.824501 5.176415 -21.324360 -35.883512 18.898344 0.000000 0.000000 0.000000 12.406017 -0.044736 11.807976 -8.203325 1.205832 -22.383614 -2.468045 11.640474 29.083126 9.140496 -8.727763 -22.033682 0.000000 0.000000 0.000000 1.024819 -9.649764 4.025476 -65.819669 -10.579655 1.549355 -9.732818 -37.843439 7.088025 0.000000 0.000000 0.000000 10.079603 -4.862421 -8.283716 56.768989 -1.887242 -9.697053 30.008791 32.742677 5.396646 0.000000 0.000000 0.000000 
3.977768 0.894436 0.239762 0.449596 -67.336486 -3.747950 -3.673647 8.750375 25.914333 0.461533 1.885022 12.840922 -0.360852 2.455251 -0.777887 0.000000 0.000000 0.000000 -7.040511 5.584140 -28.399418 13.208432 1.922727 2.610937 -21.456604 -36.262313 21.033302 0.000000 0.000000 0.000000 10.997146 -0.136283 11.315307 -7.068055 0.952462 -23.405741 -2.850508 12.419327 30.477019 7.922647 -8.084981 -24.078320 0.000000 0.000000 0.000000 1.020752 -10.330791 4.247229 -63.285569 -10.244515 0.818982 -8.695013 -38.329523 6.803310 0.000000 0.000000 0.000000 8.658934 -6.336380 -8.114856 58.488191 -4.532955 -12.144132 32.427177 29.565752 5.199577 0.000000 0.000000 0.000000 
4.043136 0.898701 0.218337 0.035727 -67.513679 -3.550575 -4.478474 7.737108 23.746501 -1.317856 1.984025 10.011256 -0.181612 4.787357 -3.614322 0.000000 0.000000 0.000000 -6.855782 5.662265 -28.510042 12.860002 1.720788 5.079498 -23.374560 -37.982294 19.981780 0.000000 0.000000 0.000000 10.289884 -0.111230 13.007892 -7.662008 1.111224 -24.068595 -2.855110 10.525895 30.383570 8.084565 -8.278044 -24.712008 0.000000 0.000000 0.000000 0.529566 -9.374940 4.122126 -61.503378 -9.185294 0.049053 -9.420287 -38.162291 7.154093 0.000000 0.000000 0.000000 8.821471 -6.513985 -8.583013 59.301065 -7.159450 -13.790458 32.845926 26.594172 4.411649 0.000000 0.000000 0.000000 
4.102603 0.906226 0.200352 1.386508 -67.603225 -4.263524 -5.373506 6.359087 20.721925 -2.503884 2.326167 9.146087 0.997978 8.393362 -3.880664 0.000000 0.000000 0.000000 -8.547002 5.561395 -28.463660 13.078688 1.721852 10.992793 -25.151937 -39.850463 18.013650 0.000000 0.000000 0.000000 9.881331 -0.113163 12.977436 -8.068953 1.162816 -22.798087 -3.676601 10.436936 29.966638 8.504461 -8.573764 -24.023026 0.000000 0.000000 0.000000 0.808936 -9.524626 4.028100 -60.774710 -8.953703 -0.110436 -9.542932 -35.973686 6.540287 0.000000 0.000000 0.000000 9.903255 -7.219658 -9.481204 59.880645 -9.770122 -15.158491 33.581799 26.089634 4.462675 0.000000 0.000000 0.000000 
4.155310 0.919893 0.185632 1.139035 -68.600925 -3.805630 -6.431130 5.485456 18.481857 -2.775565 1.908631 6.178336 2.544061 9.693514 0.385512 0.000000 0.000000 0.000000 -8.389999 4.779016 -25.803821 13.657667 2.397274 18.160634 -25.921307 -40.146773 15.188247 0.000000 0.000000 0.000000 9.723557 -0.144712 12.260671 -7.457819 0.879660 -21.537153 -4.227360 12.031271 30.287605 10.383937 -9.380569 -25.592327 0.000000 0.000000 0.000000 0.159348 -10.366909 4.624409 -59.958077 -8.129672 -1.094419 -8.479562 -35.620911 5.997937 0.000000 0.000000 0.000000 11.185998 -7.609468 -10.267696 59.971606 -9.873914 -15.098172 32.478495 24.966296 4.244871 0.000000 0.000000 0.000000 
